<?xml version="1.0" encoding="UTF-8" standalone="no"?>
<!DOCTYPE svg PUBLIC "-//W3C//DTD SVG 1.1//EN" "http://www.w3.org/Graphics/SVG/1.1/DTD/svg11.dtd">
<svg xmlns="http://www.w3.org/2000/svg" version="1.1" viewBox="0 0 64 64">
    <path fill="rgb(32,34,36)" fill-opacity="1.000" d="M 0.00 0.00 Q 14.91 0.00 29.81 0.00 Q 22.43 0.68 16.06 4.31 Q 8.53 8.52 4.31 16.06 Q 0.51 22.86 0.00 30.44 Q 0.00 15.22 0.00 0.00 Z" />
    <path fill="rgb(47,128,72)" fill-opacity="1.000" d="M 29.81 0.00 Q 31.81 0.00 33.81 0.00 Q 45.19 0.92 53.19 8.06 Q 62.80 16.65 64.00 30.06 Q 64.00 32.06 64.00 34.06 Q 63.28 43.94 57.44 51.44 Q 48.57 62.82 33.69 64.00 Q 31.81 64.00 29.94 64.00 Q 20.14 63.35 12.56 57.44 Q 0.69 48.18 0.00 33.19 Q 0.00 31.81 0.00 30.44 Q 0.51 22.86 4.31 16.06 Q 8.53 8.52 16.06 4.31 Q 22.43 0.68 29.81 0.00 Z M 60.95 32.01 A 28.94 28.94 0 0 0 32.01 3.07 A 28.94 28.94 0 0 0 3.07 32.01 A 28.94 28.94 0 0 0 32.01 60.95 A 28.94 28.94 0 0 0 60.95 32.01 Z" />
    <path fill="rgb(32,34,36)" fill-opacity="1.000" d="M 33.81 0.00 Q 48.91 0.00 64.00 0.00 Q 64.00 15.03 64.00 30.06 Q 62.80 16.65 53.19 8.06 Q 45.19 0.92 33.81 0.00 Z" />
    <path fill="rgb(32,43,38)" fill-opacity="1.000" d="M 60.95 32.01 A 28.94 28.94 0 0 1 32.01 60.95 A 28.94 28.94 0 0 1 3.07 32.01 A 28.94 28.94 0 0 1 32.01 3.07 A 28.94 28.94 0 0 1 60.95 32.01 Z M 27.08 37.19 Q 27.23 33.33 27.08 27.81 Q 27.06 27.31 27.55 27.40 Q 29.31 27.73 29.94 26.69 Q 30.79 24.93 29.50 24.75 Q 26.19 24.28 22.37 24.75 Q 21.86 24.75 21.75 25.25 Q 21.22 27.78 23.75 27.25 Q 24.61 27.07 24.58 27.94 Q 24.46 32.19 24.51 37.12 Q 24.52 38.14 23.50 38.00 Q 21.27 37.69 21.50 39.47 Q 21.59 40.23 22.36 40.24 Q 26.63 40.30 29.19 40.20 Q 29.69 40.19 30.01 39.80 Q 30.85 38.59 30.00 38.25 Q 28.31 37.57 27.56 37.64 Q 27.06 37.69 27.08 37.19 Z M 40.93 33.15 Q 43.21 32.16 43.00 28.50 Q 42.87 26.25 40.78 25.40 Q 38.27 24.37 34.14 24.79 Q 33.04 24.90 33.00 26.00 Q 32.69 33.87 32.98 39.50 Q 33.00 40.00 33.44 40.24 Q 34.09 40.59 34.96 40.33 Q 35.44 40.19 35.45 39.69 Q 35.50 37.25 35.55 34.81 Q 35.56 34.31 35.96 34.02 Q 36.64 33.52 37.64 34.17 Q 38.06 34.44 38.28 34.89 Q 39.48 37.39 40.48 39.61 Q 40.69 40.06 41.16 40.21 Q 42.32 40.58 43.05 40.22 Q 43.50 40.00 43.28 39.55 Q 42.38 37.70 40.65 33.88 Q 40.42 33.37 40.93 33.15 Z" />
    <path fill="rgb(47,128,72)" fill-opacity="1.000" d="M 22.37 24.75 Q 26.19 24.28 29.50 24.75 Q 30.79 24.93 29.94 26.69 Q 29.31 27.73 27.55 27.40 Q 27.06 27.31 27.08 27.81 Q 27.23 33.33 27.08 37.19 Q 27.06 37.69 27.56 37.64 Q 28.31 37.57 30.00 38.25 Q 30.85 38.59 30.01 39.80 Q 29.69 40.19 29.19 40.20 Q 26.63 40.30 22.36 40.24 Q 21.59 40.23 21.50 39.47 Q 21.27 37.69 23.50 38.00 Q 24.52 38.14 24.51 37.12 Q 24.46 32.19 24.58 27.94 Q 24.61 27.07 23.75 27.25 Q 21.22 27.78 21.75 25.25 Q 21.86 24.75 22.37 24.75 Z" />
    <path fill="rgb(47,128,72)" fill-opacity="1.000" d="M 34.14 24.79 Q 38.27 24.37 40.78 25.40 Q 42.87 26.25 43.00 28.50 Q 43.21 32.16 40.93 33.15 Q 40.42 33.37 40.65 33.88 Q 42.38 37.70 43.28 39.55 Q 43.50 40.00 43.05 40.22 Q 42.32 40.58 41.16 40.21 Q 40.69 40.06 40.48 39.61 Q 39.48 37.39 38.28 34.89 Q 38.06 34.44 37.64 34.17 Q 36.64 33.52 35.96 34.02 Q 35.56 34.31 35.55 34.81 Q 35.50 37.25 35.45 39.69 Q 35.44 40.19 34.96 40.33 Q 34.09 40.59 33.44 40.24 Q 33.00 40.00 32.98 39.50 Q 32.69 33.87 33.00 26.00 Q 33.04 24.90 34.14 24.79 Z M 36.44 31.31 Q 37.86 31.79 39.38 31.08 Q 42.31 29.71 39.69 27.81 Q 38.26 26.78 36.17 27.31 Q 35.69 27.44 35.52 27.91 Q 35.37 28.35 35.54 30.18 Q 35.62 31.04 36.44 31.31 Z" />
    <path fill="rgb(32,43,38)" fill-opacity="1.000" d="M 39.69 27.81 Q 42.31 29.71 39.38 31.08 Q 37.86 31.79 36.44 31.31 Q 35.62 31.04 35.54 30.18 Q 35.37 28.35 35.52 27.91 Q 35.69 27.44 36.17 27.31 Q 38.26 26.78 39.69 27.81 Z" />
    <path fill="rgb(32,34,36)" fill-opacity="1.000" d="M 0.00 33.19 Q 0.69 48.18 12.56 57.44 Q 20.14 63.35 29.94 64.00 Q 14.97 64.00 0.00 64.00 Q 0.00 48.59 0.00 33.19 Z" />
    <path fill="rgb(32,34,36)" fill-opacity="1.000" d="M 64.00 34.06 Q 64.00 49.03 64.00 64.00 Q 48.84 64.00 33.69 64.00 Q 48.57 62.82 57.44 51.44 Q 63.28 43.94 64.00 34.06 Z" />
</svg>